<mxfile host="app.diagrams.net" modified="2023-12-27T11:46:37.793Z" agent="Mozilla/5.0 (Windows NT 10.0; Win64; x64; rv:121.0) Gecko/20100101 Firefox/121.0" version="22.1.11" etag="kfgT8tNI01ycufDBwFJF" type="github">
  <diagram name="Page-1" id="q5apcC1JwXEpHlUkI6Ow">
    <mxGraphModel>
      <root>
        <mxCell id="0" />
        <mxCell id="1" parent="0" />
      </root>
    </mxGraphModel>
  </diagram>
</mxfile>
